<svg xmlns="http://www.w3.org/2000/svg" viewBox="-10 121.5 1057.5 741">
<g transform="scale(1,-1) translate(0,-984)" stroke="black" stroke-width="1" fill="none">
<polyline points="245.5,366.5 243.31568908691406,362.815673828125 238.4923095703125,359.97509765625 231.5,352.5" />
<polyline points="740.5,374.5 743.8611450195312,377.24945068359375 747.752685546875,377.4886474609375 753.4246215820312,372.57537841796875 758.8933715820312,372.5 762.4601440429688,375.96014404296875 764.7413330078125,376.48834228515625 769.0208129882812,375.97918701171875 771.5,373.5" />
<polyline points="653.5,353.5 649.5,357.55023193359375 649.5355224609375,365.5355224609375 651.4262084960938,371.2523193359375 651.509765625,378.7177734375 652.4915161132812,383.3111572265625 652,388" />
<polyline points="175,315 171.8209991455078,314.22509765625 168.5,310.5" />
<polyline points="570.4303588867188,238.24365234375 623.4424438476562,303.45330810546875" />
<polyline points="657.5596923828125,735.5564880371094 509.00360107421875,729.4124755859375" />
<polyline points="168.5,310.5 163.60858154296875,307.60858154296875 153.89620971679688,304.5 147.6033172607422,304 146.03024291992188,305.00640869140625 145.57301330566406,308.2451171875 147.4624786376953,312.96246337890625 147.5,316.4468994140625 145.06265258789062,319.93731689453125 143.5,325.2900390625 146.17999267578125,329.6800537109375 150.94775390625,331.44775390625 159.4261016845703,331.5 171.45814514160156,325.5418701171875 177.6123809814453,323.5 180.0794677734375,323.4205322265625 181,322.5" />
<polyline points="103,295 97.71076965332031,300.898193359375 93.5,310" />
<polyline points="823,612 822.5,627.8786926269531 821.525146484375,629.9748840332031 821.5,640.9644775390625 820.5,643.0502624511719 820.5,663.0502624511719 821.5,665.1360473632812 822.441162109375,678.6974487304688 818,691.8578491210938 816.5116577148438,699.7413330078125 816.332763671875,708.667236328125 805,732.4730529785156 801.4835205078125,738.5164794921875 784.5130004882812,758.4870300292969 778.5025634765625,770.9974212646484 778.5,772.4963531494141 776.0277099609375,776.9722900390625 773.5,784.4252777099609 767.5,796.4399871826172 756.582275390625,808.4177093505859 748.5718994140625,814.4281158447266 734.5008544921875,821.4991760253906 717.0721435546875,826.5 706.5404663085938,832.4595336914062 700,833" />
<polyline points="391.5,465.5 397.3786926269531,464 401.5,460" />
<polyline points="833,309.5 826.9141845703125,310.5 819.621337890625,310 816.0502319335938,306.55023193359375 814.9896240234375,301.4896240234375 813.5753784179688,300.07537841796875 806.93505859375,298 798.6421508789062,297.5 794.6838989257812,301.7220458984375 790.506103515625,302.5 786,298.95587158203125 782.0797119140625,293.5797119140625 781,290.52691650390625 776.5919189453125,286.221923828125 773.7198486328125,286.087158203125 769.799560546875,287.48651123046875 766.8992309570312,287.27264404296875 760.4974975585938,280 754.4375610351562,278.93756103515625 745.6951293945312,275.90155029296875 739.5,271.5" />
<polyline points="409,376 409,384 411,390.5" />
<polyline points="263.5,356 263.5,354 262,352.5" />
<polyline points="387,364.5 389.27008056640625,363.72991943359375 392.4520568847656,360.54791259765625 396,360" />
<polyline points="696.5,839 695.2843017578125,840.4046783447266 681.0479125976562,843.4520721435547 656.1033325195312,846 628.3139038085938,845.4916229248047 602.5531005859375,842.5 600.96728515625,841.5 597.4768676757812,841.4768676757812 595.8814697265625,840.5 592.4161987304688,840.4162139892578 579.527099609375,836.5271301269531 577.038330078125,836.5 547.0947265625,825.5 506.4751281738281,806.4751129150391 500.3789367675781,801.8789367675781 499,800" />
<polyline points="644,391.5 646.8307495117188,393.33074951171875 650.0180053710938,397.5 654.4824829101562,400 657,403.5" />
<polyline points="978.5,287 983.4497680664062,279.55023193359375 985,275" />
<polyline points="334,451 335,448" />
<polyline points="670,336 670,339" />
<polyline points="696.5,839 698.5,839" />
<polyline points="373.5,408 372.9169921875,412.25848388671875 365,431.5" />
<polyline points="918,272 920.878662109375,273.5 926.5,278.5" />
<polyline points="641,313 636.315673828125,315.184326171875 633.5,317.5" />
<polyline points="48,345.5 53.26776885986328,347.26776123046875 56,351.13604736328125 55.903804779052734,356.59619140625 53.075382232666016,361.92462158203125 52.50823211669922,365.682861328125 54.045936584472656,371.54595947265625 57.935020446777344,377.43499755859375 58,383.4080810546875 52.48368835449219,388.037353515625 49.993919372558594,393.006103515625 45.251285552978516,397.24871826171875 39.59443664550781,406.40557861328125 29.97311782836914,408.52685546875 27,411.00250244140625 23.462717056274414,419.03729248046875 20.98217010498047,421.4984130859375 18.89702606201172,422.5 13.305543899536133,421.5137939453125 7.018348693847656,422 1.8823089599609375,427 0,427" />
<polyline points="463,245.5 464.26068115234375,245.904052734375 465.707763671875,244.7073974609375 466.5,240.5" />
<polyline points="696,769 696.4169921875,776.2584838867188 692.5,788.1360321044922 692.5,792" />
<polyline points="209,255 206.5,259" />
<polyline points="303,425 301.5,431.378662109375 294.51470947265625,444.48529052734375 293.5,449.5" />
<polyline points="642.5,395 644,391.5" />
<polyline points="644,389 641.6692504882812,385.66925048828125 632.5,358.46728515625 631.5,347.3814697265625 634.0586547851562,337.94134521484375 635.826416015625,335.173583984375 638.1331787109375,333.5 650.5,337" />
<polyline points="645,404.5 643.9393310546875,399.9393310546875 642.525146484375,397.525146484375 642.5,395" />
<polyline points="391,340.5 397.01800537109375,345.5 400.5,346" />
<polyline points="879.5,315 882.0858154296875,316 896.878662109375,315.5 899,314" />
<polyline points="493.5,271 488.0502624511719,276.44976806640625 486.0710754394531,276.5 484,274.39947509765625 482.5008544921875,265.02044677734375 481.4350280761719,264 477.14215087890625,264.5 475,267.0294189453125 473.5,271.4080810546875 471.0901184082031,273.909912109375 458.85882568359375,274.5587158203125 456.47332763671875,276.042236328125 454,279.00860595703125 450.7381286621094,289.157470703125 443,295.5" />
<polyline points="693,799 691.5,800.8786773681641 691.5,807.3786773681641 692.474853515625,808.9748687744141 692.5,813.4644622802734 695.6568603515625,823.6568450927734 700,833" />
<polyline points="693,799 694.9053344726562,801.2107849121094 697.59619140625,810.59619140625 704.4601440429688,817.4601593017578 713.2338256835938,820.4207153320312 720.493896484375,820 729.0311889648438,816.4687957763672 733.9122924804688,812.5764007568359 737.455810546875,807.0441741943359 738.5,803.9766845703125 738.4835205078125,793.4835205078125 736.3621826171875,787.3621978759766 732.47314453125,781.9731140136719 726.0233764648438,777.0233764648438 722.447265625,776 714.447265625,776 703.9271850585938,779.5728149414062 698.9918212890625,784.5285034179688 695.5,792" />
<polyline points="727,152 718.0322265625,150.5 716.4464721679688,149.5 713.462158203125,149.462158203125 711.8606567382812,148.5 706.8606567382812,148.5 693.5175170898438,152.5 681.4413452148438,159.55865478515625 674.577392578125,166.422607421875 671.5,174.14794921875 668.5669555664062,185.43304443359375 668.5,188.9052734375 667.50634765625,190.49365234375 667.5,195.9910888671875 666.5,198.07684326171875 666.5,217.07684326171875 667.485107421875,221.16876220703125 668.5,236" />
<polyline points="337.5,394 334.71246337890625,394.487060546875 326.5355224609375,392.5 310.10052490234375,385.10052490234375 306.8658142089844,384.57080078125 305.5,386" />
<polyline points="337.5,394 339.9748840332031,397.974853515625 340.5,402" />
<polyline points="337.5,394 337.5,379 340,377.5" />
<polyline points="706.5,180.5 698.5,196" />
<polyline points="387,364.5 386.512939453125,375.78753662109375 387.5,378.5" />
<polyline points="417,324.5 416.512939453125,315.71246337890625 417.5,313.121337890625 417.5,310.121337890625 419.5355224609375,303.4644775390625 424.48529052734375,293.01470947265625 424.9779052734375,287.72869873046875 423,275.55633544921875 424.02081298828125,268.97918701171875 425,268" />
<polyline points="693,797.5 694.9771728515625,796.0227966308594 695.5,792" />
<polyline points="448.5,701 447.5,704.0857849121094 448,705.5" />
<polyline points="677,335.5 675.7354736328125,335.0867919921875 670,336" />
<polyline points="883,297.5 887.5606689453125,298.5606689453125 890.9295654296875,301.2911376953125 902.8388061523438,306.33880615234375 906.2671508789062,306.48797607421875 907.5,305.93505859375 907.5459594726562,296.45404052734375 908.5,295.5" />
<polyline points="384.5,414 387,414" />
<polyline points="384.5,414 383.5,412.4141845703125 382.5,406" />
<polyline points="365,412 361.5,413.5" />
<polyline points="427.5,258 427.5,253 425.0251159667969,250.525146484375 421.36395263671875,248.5 409.6065979003906,245.5 400.6256408691406,240.6256103515625 394.3847961425781,240 386.32586669921875,241.72796630859375 385.5,240.62744140625 385.5,236.62744140625 386.4705505371094,235.02947998046875 387,230.748779296875 383,224.9056396484375 384.48095703125,222.01904296875 388.24871826171875,220.25128173828125 390.29205322265625,218.09765625 392.5,212.01220703125 394.2828369140625,209.7982177734375 397.27313232421875,208.56756591796875 402.17333984375,208.32666015625 410.0024719238281,205.5 413.5017395019531,205.49822998046875 416.0624084472656,204.43756103515625 417.5,202.0330810546875 420.4515075683594,199.54852294921875 429.931396484375,199.5 433.30633544921875,196.783935546875 435.1334533691406,196.63348388671875 440.5318908691406,200.5 454.5580749511719,204.05810546875 461.13238525390625,207.5 473.5935974121094,207.5936279296875 479.0684814453125,210.0684814453125 481.5613098144531,212.5 484.4575500488281,213.95758056640625 489.5257568359375,215 499.78240966796875,214.587646484375 507.990234375,216.5 512.6680297851562,218.48504638671875 524.1144409179688,218.61444091796875 532.5892944335938,221.08929443359375 543.3926391601562,226.39263916015625 557,228.5" />
<polyline points="636.5,389 639.6820068359375,393.6820068359375 642.5,395" />
<polyline points="356.5,328 357.5,329.0858154296875 358.507568359375,362.66839599609375 359.4892578125,366.26177978515625 359,374.5" />
<polyline points="358.5,301.5 356,301.5 353.943115234375,302.56982421875 347.92047119140625,312.0675048828125 346.1270751953125,313.756591796875 344.5,314" />
<polyline points="300,377.5 302,377.5 313.5104064941406,371.48956298828125 320.3136901855469,366.186279296875 328.4493713378906,357.5640869140625 331,356.5" />
<polyline points="499,800 499,798 495.5,790.4497528076172 495.5355224609375,787.9644622802734 496.59619140625,785.40380859375 499.42803955078125,782.5836181640625 506.63397216796875,778.2524261474609 510.9098815917969,774.0901031494141 511.61700439453125,763.8829956054688 512.6776733398438,761.3223571777344 513.884765625,760.615234375 520.300048828125,760.58935546875 531.5667114257812,763.5667419433594 560.4522094726562,773.5 609.9722900390625,793.9723052978516 624.0968627929688,798.5 641.4575805664062,802.4575805664062 645.4400024414062,802.5 647.5257568359375,803.5 662.5182495117188,803.4817657470703 668.6082153320312,801.2848510742188 672.5,796.9595031738281 673.5,794.8737182617188 673,784.0808258056641 670.9358520507812,780.4358367919922 667.57275390625,777.6910400390625 664.5661010742188,776.5 663.5,774.5" />
<polyline points="216,394.5 216,393 209.22610473632812,386.59869384765625 208.57107543945312,384.928955078125 209.32923889160156,383.78857421875 225.94541931152344,372.0545654296875 230.92030334472656,369.5797119140625 234.48095703125,368.51904296875 238.9730682373047,368.5 240.55885314941406,367.5 244.54161071777344,367.4583740234375 245.5,366.5" />
<polyline points="661.5,635 658.443115234375,633.93017578125 647.5,621.9705505371094 639,608.4913940429688 634.5,599.3553466796875 629.5,585.4264526367188 626.6195678710938,573.6195678710938 625.5,563.0833129882812 624.5,561.4974975585938 624.4982299804688,554.4982299804688 623.5,552.4117431640625 623,523.6188354492188 624.511474609375,501.744873046875 625.4591064453125,498.63739013671875 626.5,482.068603515625 627.5,480.4827880859375 627.5121459960938,476.48785400390625 628.5,474.89703369140625 629.6334838867188,466.86651611328125 634.5831909179688,449.91680908203125 645.5433349609375,421.4566650390625 650.2151489257812,411.89178466796875 657,403.5" />
<polyline points="386.5,389.5 387.5,386.9141845703125 387.5,378.5" />
<polyline points="234,345.5 232.0893096923828,349.20855712890625 231.5,352.5" />
<polyline points="206.5,259 216.07339477539062,265.5733642578125 218.90182495117188,268.40179443359375 220.5,268.5" />
<polyline points="870.5,402.5 870.5,399.5 868,395.5355224609375 864,393" />
<polyline points="896,366.5 897.9854736328125,375.6776123046875 898,383" />
<polyline points="245,341.5 241.5,345.05023193359375 241.1109161376953,347.88909912109375 237.90380859375,347.40380859375 236.4852752685547,346 234,345.5" />
<polyline points="245,341.5 246.70774841308594,343.2926025390625 247.5,346.4644775390625 255.9644775390625,355.44970703125 258.5,356.5" />
<polyline points="245,341.5 245.5,336.5" />
<polyline points="1009,297 1006.1085815429688,301.39141845703125 1007.3353271484375,303.2337646484375 1013.2752075195312,304.586181640625 1019.5682373046875,307.5 1036.208740234375,309.5750732421875 1037.5,310.5" />
<polyline points="420.5,389.5 420.5,387.5 425.4497375488281,376.05023193359375 426.5104064941406,369.48956298828125 427.5,367.89947509765625 427.5,353.39947509765625 424.5,340.14215087890625 420,330.5" />
<polyline points="373.5,408 380,401.98529052734375 384.6904296875,393.4281005859375 386.5,392" />
<polyline points="670,237 671,237 675.2426147460938,232.75738525390625 684.0814819335938,218.91851806640625 688,217" />
<polyline points="417,324.5 416,325.3819580078125 416,329.5" />
<polyline points="209,399.5 203.43934631347656,399.5606689453125 201.32241821289062,400.4854736328125 194.5,400" />
<polyline points="906.5,281 916.378662109375,282.5 922.0502319335938,284.5 925.0355224609375,284.4644775390625 926.5,278.5" />
<polyline points="29,317.5 29,316.5 27.5,315.5" />
<polyline points="935,296 929,305" />
<polyline points="652,388 647.2124633789062,387.512939453125 644,389" />
<polyline points="553.5,252 550.5,252 545.7914428710938,253.91070556640625 540.5355224609375,254.5 534.6956176757812,248.28509521484375 530.93505859375,246.5 528.4540405273438,246.54595947265625 524.0563354492188,248 520.5043334960938,251.99566650390625 519.4436645507812,255.05633544921875 514.4884033203125,261.4927978515625 510.0797119140625,262.9202880859375 509,262.5" />
<polyline points="435,424.5 435,422 438.5,417.44976806640625 442.42462158203125,410.07537841796875 443,405" />
<polyline points="967,281.5 963.5,282" />
<polyline points="810.5,153.5 801.9852905273438,147.5 792.0398559570312,142.53985595703125 781.8578491210938,139.35784912109375 768.9913940429688,133 763.6127319335938,131.5 757.6127319335938,131.5 756.01904296875,132.48095703125 752.5269165039062,132.5 740.0980224609375,137.5 732.5588989257812,143.44110107421875 728.2427978515625,151.1446533203125 727,152" />
<polyline points="810.5,153.5 816.2076416015625,151.58709716796875 823.9644775390625,151 836.252685546875,151.5113525390625 845.428955078125,153.5 851.071044921875,155.571044921875 860.0208129882812,160.52081298828125 866.2882080078125,167.9248046875 867.4454345703125,170.9454345703125 867.5,174.42279052734375 868.5,176.00860595703125 868.506103515625,179.506103515625 869.5,181.0943603515625 869.5,187.0943603515625 870.48583984375,191.18603515625 870.4920654296875,210.1768798828125 868.5,224.85174560546875 867.544189453125,226.455810546875 867.5,229.9375 866.5,231.5233154296875 866.4835205078125,235.5164794921875 865.5,237.109130859375 865.4228515625,240.0771484375 861.5337524414062,253.46624755859375 861.5,255.9522705078125 860.5,257.53802490234375 858.5,269.5" />
<polyline points="456.5,257 448.01470947265625,246.51470947265625 447.5,242.2279052734375 448,240" />
<polyline points="361.5,408 361.5,413.5" />
<polyline points="509,729.5 506.7891845703125,731.4053344726562 503.8786926269531,731.6213073730469 500.9644775390625,733.0355224609375 499.5502624511719,734.4497375488281 499.5,737.9289245605469 501.92462158203125,741.4246215820312 509.0294189453125,746 515.493896484375,748.5 518,751.5" />
<polyline points="382.5,300.5 380.5145263671875,303.1776123046875 380.507568359375,315.66839599609375 382.5151672363281,337.8367919921875 383.5,340.428955078125 383.5,346.428955078125 384.5,348.01470947265625 384.5104064941406,354.5103759765625 385.5,356.10052490234375 385.5,363.1004638671875 387,364.5" />
<polyline points="301.5,296 314.9289245605469,291 320.47918701171875,287.5 327.3846435546875,281.2362060546875 330.5,280.5" />
<polyline points="923.5,310.5 926.8939819335938,306.11474609375 929,305" />
<polyline points="967,281.5 967,270.5" />
<polyline points="361.5,408 373.5,408" />
<polyline points="670,339 673.8819580078125,339.5 675.9677734375,338.5 677,335.5" />
<polyline points="650.5,337 661.474853515625,339.474853515625 668.252685546875,339.9886474609375 670,339" />
<polyline points="903,312 901,314" />
<polyline points="392,377 387.5,378.5" />
<polyline points="663.5,415.5 663.012939453125,422.78753662109375 664.621337890625,434.121337890625 667.5,444.928955078125 676.9956665039062,472.49566650390625 680.5,486.04412841796875 682.4874267578125,498.720947265625 682.490478515625,512.7117309570312 681.5526123046875,516.8233032226562 681.4866943359375,522.7959594726562 678,542.3517456054688 677,543.5" />
<polyline points="361.5,413.5 359.5,416" />
<polyline points="906,316 902.6180419921875,315.5 901,314" />
<polyline points="988,356 994.4497680664062,360.94976806640625 997.0147094726562,362 1000.0104370117188,361.98956298828125 1006.4852905273438,359.51470947265625 1013.9791870117188,359.5 1016.7393188476562,362.34454345703125 1019.28857421875,368.78857421875 1021.409912109375,370.909912109375 1023.9705810546875,371.9705810546875 1025,371.5" />
<polyline points="406,312.5 407.5,311.4141845703125 407.5606689453125,293.4393310546875 412,277" />
<polyline points="289.5,296 301.5,296" />
<polyline points="262,352.5 260.3020935058594,353.3369140625 258.5,356.5" />
<polyline points="344.5,314 341,338" />
<polyline points="828.5,414.5 824.1180419921875,415 820.2130126953125,413.5634765625 817.2442016601562,413.51153564453125 812.4014892578125,414.9014892578125 810.9872436523438,410.98724365234375 808.0123901367188,407.51239013671875 808,405.01751708984375 806.1388549804688,403.5 800.1388549804688,403.5 798.5375366210938,404.46246337890625 794.2601928710938,405 788.1771240234375,404.0220947265625 777.3555297851562,405.35552978515625 772.527099609375,402.527099609375 757.3114624023438,398.21923828125 752.5418701171875,393.5418701171875 745.6527709960938,389.65277099609375 736,389" />
<polyline points="0.5,324 8.758502960205078,324.4169921875 15.721826553344727,319 18.010408401489258,319.51043701171875 20.22415542602539,321.4085693359375 27.160083770751953,321.43670654296875 28.256616592407227,320.6270751953125 29,317.5" />
<polyline points="218.5,397 218.14645385742188,395.14642333984375 216,394.5" />
<polyline points="405.5,421 401.8210144042969,420.22503662109375 392.1004943847656,410.60052490234375 390,409.5" />
<polyline points="262,352.5 262,351.5 254.72610473632812,345.09869384765625 253.57537841796875,342.57537841796875 253,336" />
<polyline points="66,439.5 65,437.4141845703125 65.06066131591797,435.4393310546875 68.94974517822266,431.55023193359375 71.12223815917969,430.75958251953125 73.98528289794922,428.01470947265625 74.04594421386719,418.95404052734375 75.46015167236328,417.03985595703125 77.52943420410156,416 81.52081298828125,415.97918701171875 82.5,414.884765625 82.55329895019531,408.32110595703125 83.70278930664062,406.29718017578125 86.87257385253906,405.5 92.36132049560547,405.5155944824219 94.5,406.5" />
</g>
</svg>
